# xmcd
#
# Track frame offsets:
#	150
#	11216
#	26092
#	40105
#	52975
#	68294
#	80248
#	99830
#	113665
#	126682
#	137441
#	154991
#	167704
#	179686
#	191302
#	200400
#	213267
#	227778
#	238962
#	253730
#	267530
#	281494
#	294678
#	306085
#	320790
#	332800
#	346489
#
# Disc length: 4751 seconds
#
# Revision: 0
# Processed by: cddbd v1.5.2PL0 Copyright (c) Steve Scherf et al.
# Submitted via: audiograbber 1.83.01
#
DISCID=9d128d1b
DTITLE=Leona Williams - Just For My Friends (2019 Cruise Special)
DYEAR=2019
DGENRE=Country
TTITLE0=Yes Ma'am
TTITLE1=Dance Til The Cows Come Home
TTITLE2=Things I almost Had With You
TTITLE3=Don't Sing Me No Songs About Texas
TTITLE4=I Never Go Around Mirrors
TTITLE5=Memories To Burn
TTITLE6=Nobody's Darlin' But Mine
TTITLE7=Guitar Pickin' Song
TTITLE8=You Take Me For Granted
TTITLE9=Ole George
TTITLE10=Someday When Things Are Good
TTITLE11=I Walked From Dallas
TTITLE12=I Fall Easy
TTITLE13=Before You Lose It All
TTITLE14=Texas Fiddle Song
TTITLE15=Blue Darlin'
TTITLE16=It's Tearin' The Old Heart Out Of Me
TTITLE17=Dallas
TTITLE18=I Love You Because
TTITLE19=New Patches
TTITLE20=I'm Too Good To Be Better
TTITLE21=You Put Out An Old Flame
TTITLE22=I'm Getting Better At Just Getting By
TTITLE23=Melted Down Memories
TTITLE24=Many Happy Hangovers
TTITLE25=When He Touches Me
TTITLE26=Manhattan Kansas
EXTD="This is a CD that I made for you! This contains 27 songs that I picked 'J
EXTD=ust For My Friends'.  This is only for sale at my shows. I hope you enjoy 
EXTD=my personal selections for you." - Leona
EXTT0=
EXTT1=
EXTT2=
EXTT3=
EXTT4=
EXTT5=
EXTT6=
EXTT7=
EXTT8=
EXTT9=
EXTT10=
EXTT11=
EXTT12=
EXTT13=
EXTT14=
EXTT15=
EXTT16=
EXTT17=
EXTT18=
EXTT19=
EXTT20=
EXTT21=
EXTT22=
EXTT23=
EXTT24=
EXTT25=
EXTT26=
PLAYORDER=
